<svg width="40" height="40" viewBox="0 0 80 80" fill="none" xmlns="http://www.w3.org/2000/svg">
<path d="M29.695 11.5227V7C29.695 4.79086 31.4858 3 33.695 3H46.3009C48.5101 3 50.3009 4.79086 50.3009 7V11.5227" stroke="black" stroke-width="5"/>
<path d="M12.2944 11.3333L67.7015 11.3388" stroke="black" stroke-width="7" stroke-linecap="round"/>
<path fill-rule="evenodd" clip-rule="evenodd" d="M60.8326 78H18.9612C18.4571 78 18.0318 77.6247 17.969 77.1245L10.9473 21.17C10.8724 20.573 11.3378 20.0455 11.9395 20.0455H67.8543C68.456 20.0455 68.9215 20.573 68.8465 21.17L61.8248 77.1245C61.7621 77.6247 61.3368 78 60.8326 78ZM32.955 22.367C35.4385 22.2722 37.5298 24.2086 37.626 26.692L39.3431 71.0097C39.4394 73.4931 37.5041 75.5831 35.0206 75.678C32.5372 75.7728 30.4459 73.8364 30.3497 71.353L28.6325 27.0353C28.5363 24.5519 30.4716 22.4619 32.955 22.367ZM51.3633 27.0353C51.4595 24.5519 49.5243 22.4619 47.0408 22.367C44.5573 22.2722 42.4661 24.2086 42.3698 26.692L40.6527 71.0097C40.5565 73.4931 42.4917 75.5831 44.9752 75.678C47.4587 75.7728 49.5499 73.8364 49.6461 71.353L51.3633 27.0353ZM61.1234 22.3938C63.5926 22.6766 65.3616 24.9071 65.0746 27.3757L59.9231 71.6939C59.6362 74.1626 57.4019 75.9345 54.9328 75.6517C52.4637 75.3689 50.6946 73.1384 50.9816 70.6698L56.1331 26.3516C56.42 23.8829 58.6543 22.111 61.1234 22.3938ZM23.8628 26.3516C23.5758 23.8829 21.3415 22.111 18.8724 22.3938C16.4033 22.6766 14.6343 24.9071 14.9212 27.3757L20.0727 71.6939C20.3597 74.1626 22.5939 75.9345 25.063 75.6517C27.5322 75.3689 29.3012 73.1384 29.0142 70.6698L23.8628 26.3516Z" fill="black"/>
<path d="M17.969 77.1245L19.9535 76.8755L19.9535 76.8755L17.969 77.1245ZM10.9473 21.17L12.9318 20.921L12.9318 20.921L10.9473 21.17ZM68.8465 21.17L66.8621 20.9209L66.8621 20.921L68.8465 21.17ZM61.8248 77.1245L59.8404 76.8755L59.8404 76.8755L61.8248 77.1245ZM37.626 26.692L39.6245 26.6145L39.6245 26.6145L37.626 26.692ZM32.955 22.367L33.0313 24.3656L33.0313 24.3656L32.955 22.367ZM39.3431 71.0097L41.3416 70.9322L41.3416 70.9322L39.3431 71.0097ZM35.0206 75.678L35.0969 77.6765L35.0969 77.6765L35.0206 75.678ZM30.3497 71.353L28.3512 71.4304L28.3512 71.4304L30.3497 71.353ZM28.6325 27.0353L26.634 27.1128L26.634 27.1128L28.6325 27.0353ZM47.0408 22.367L47.1171 20.3685L47.1171 20.3685L47.0408 22.367ZM51.3633 27.0353L53.3618 27.1128L53.3618 27.1128L51.3633 27.0353ZM42.3698 26.692L44.3683 26.7694L44.3683 26.7694L42.3698 26.692ZM40.6527 71.0097L42.6512 71.0871L42.6512 71.0871L40.6527 71.0097ZM44.9752 75.678L44.8989 77.6765L44.8989 77.6765L44.9752 75.678ZM49.6461 71.353L51.6446 71.4305L51.6446 71.4304L49.6461 71.353ZM65.0746 27.3757L67.0612 27.6067L67.0612 27.6067L65.0746 27.3757ZM59.9231 71.6939L57.9365 71.463L57.9365 71.463L59.9231 71.6939ZM54.9328 75.6517L55.1604 73.6647L55.1604 73.6647L54.9328 75.6517ZM50.9816 70.6698L48.995 70.4388L48.995 70.4388L50.9816 70.6698ZM56.1331 26.3516L58.1197 26.5825L58.1197 26.5825L56.1331 26.3516ZM23.8628 26.3516L25.8494 26.1207L25.8494 26.1207L23.8628 26.3516ZM14.9212 27.3757L16.9078 27.1448L16.9078 27.1448L14.9212 27.3757ZM20.0727 71.6939L18.0861 71.9248L18.0861 71.9248L20.0727 71.6939ZM25.063 75.6517L24.8355 73.6647L24.8355 73.6647L25.063 75.6517ZM29.0142 70.6698L31.0009 70.4388L31.0009 70.4388L29.0142 70.6698ZM18.9612 80H60.8326V76H18.9612V80ZM15.9846 77.3735C16.1729 78.8742 17.4488 80 18.9612 80V76C19.4654 76 19.8907 76.3753 19.9535 76.8755L15.9846 77.3735ZM8.96289 21.419L15.9846 77.3735L19.9535 76.8755L12.9318 20.921L8.96289 21.419ZM11.9395 18.0455C10.1345 18.0455 8.73813 19.628 8.96289 21.419L12.9318 20.921C13.0067 21.518 12.5412 22.0455 11.9395 22.0455V18.0455ZM67.8543 18.0455H11.9395V22.0455H67.8543V18.0455ZM70.831 21.419C71.0557 19.628 69.6594 18.0455 67.8543 18.0455V22.0455C67.2527 22.0455 66.7872 21.518 66.8621 20.9209L70.831 21.419ZM63.8093 77.3735L70.831 21.419L66.8621 20.921L59.8404 76.8755L63.8093 77.3735ZM60.8326 80C62.345 80 63.621 78.8742 63.8093 77.3735L59.8404 76.8755C59.9032 76.3753 60.3285 76 60.8326 76V80ZM39.6245 26.6145C39.4855 23.0278 36.4655 20.2316 32.8787 20.3685L33.0313 24.3656C34.4115 24.3129 35.574 25.3893 35.6275 26.7694L39.6245 26.6145ZM41.3416 70.9322L39.6245 26.6145L35.6275 26.7694L37.3446 71.0871L41.3416 70.9322ZM35.0969 77.6765C38.6846 77.5395 41.4806 74.5198 41.3416 70.9322L37.3446 71.0871C37.3981 72.4663 36.3236 73.6268 34.9443 73.6794L35.0969 77.6765ZM28.3512 71.4304C28.4902 75.0172 31.5101 77.8134 35.0969 77.6765L34.9443 73.6794C33.5642 73.7321 32.4017 72.6557 32.3482 71.2756L28.3512 71.4304ZM26.634 27.1128L28.3512 71.4304L32.3482 71.2756L30.631 26.9579L26.634 27.1128ZM32.8787 20.3685C29.2911 20.5055 26.495 23.5252 26.634 27.1128L30.631 26.9579C30.5776 25.5787 31.6521 24.4182 33.0313 24.3656L32.8787 20.3685ZM46.9645 24.3656C48.3437 24.4182 49.4182 25.5787 49.3648 26.9579L53.3618 27.1128C53.5008 23.5252 50.7048 20.5055 47.1171 20.3685L46.9645 24.3656ZM44.3683 26.7694C44.4218 25.3893 45.5843 24.3129 46.9645 24.3656L47.1171 20.3685C43.5303 20.2316 40.5103 23.0278 40.3713 26.6145L44.3683 26.7694ZM42.6512 71.0871L44.3683 26.7694L40.3713 26.6145L38.6542 70.9322L42.6512 71.0871ZM45.0515 73.6794C43.6722 73.6268 42.5978 72.4663 42.6512 71.0871L38.6542 70.9322C38.5152 74.5198 41.3112 77.5395 44.8989 77.6765L45.0515 73.6794ZM47.6476 71.2756C47.5942 72.6557 46.4316 73.7321 45.0515 73.6794L44.8989 77.6765C48.4857 77.8134 51.5057 75.0172 51.6446 71.4305L47.6476 71.2756ZM49.3648 26.9579L47.6476 71.2756L51.6446 71.4304L53.3618 27.1128L49.3648 26.9579ZM67.0612 27.6067C67.4759 24.0395 64.9188 20.8154 61.351 20.4067L60.8958 24.3808C62.2663 24.5377 63.2473 25.7746 63.088 27.1448L67.0612 27.6067ZM61.9098 71.9248L67.0612 27.6067L63.088 27.1448L57.9365 71.463L61.9098 71.9248ZM54.7052 77.6387C58.2704 78.0471 61.4954 75.4894 61.9098 71.9248L57.9365 71.463C57.7769 72.8358 56.5334 73.822 55.1604 73.6647L54.7052 77.6387ZM48.995 70.4388C48.5803 74.006 51.1374 77.2301 54.7052 77.6387L55.1604 73.6647C53.7899 73.5078 52.809 72.2709 52.9682 70.9007L48.995 70.4388ZM54.1465 26.1207L48.995 70.4388L52.9682 70.9007L58.1197 26.5825L54.1465 26.1207ZM61.351 20.4067C57.7858 19.9984 54.5608 22.5561 54.1465 26.1207L58.1197 26.5825C58.2793 25.2097 59.5228 24.2235 60.8958 24.3808L61.351 20.4067ZM19.1 24.3808C20.473 24.2235 21.7166 25.2097 21.8761 26.5825L25.8494 26.1207C25.435 22.5561 22.2101 19.9984 18.6448 20.4067L19.1 24.3808ZM16.9078 27.1448C16.7486 25.7746 17.7296 24.5377 19.1 24.3808L18.6448 20.4067C15.077 20.8154 12.52 24.0395 12.9346 27.6067L16.9078 27.1448ZM22.0593 71.463L16.9078 27.1448L12.9346 27.6067L18.0861 71.9248L22.0593 71.463ZM24.8355 73.6647C23.4624 73.822 22.2189 72.8358 22.0593 71.463L18.0861 71.9248C18.5004 75.4894 21.7254 78.0471 25.2906 77.6387L24.8355 73.6647ZM27.0276 70.9007C27.1869 72.2709 26.2059 73.5078 24.8355 73.6647L25.2906 77.6387C28.8585 77.2301 31.4155 74.006 31.0009 70.4388L27.0276 70.9007ZM21.8761 26.5825L27.0276 70.9007L31.0009 70.4388L25.8494 26.1207L21.8761 26.5825Z" fill="black"/>
</svg>
